<svg width="1280" height="640" viewBox="0 0 1280 640" fill="none" xmlns="http://www.w3.org/2000/svg">
  <rect width="1280" height="640" fill="#EEE5D6"/>
  <rect x="56" y="56" width="1168" height="528" rx="40" fill="url(#bg)"/>
  <circle cx="640" cy="234" r="126" fill="#F8F2E8" stroke="#111111" stroke-width="18"/>
  <circle cx="592" cy="218" r="28" fill="#111111"/>
  <circle cx="688" cy="218" r="28" fill="#111111"/>
  <path d="M639 244L611 289H667L639 244Z" fill="#111111"/>
  <rect x="568" y="324" width="144" height="90" rx="22" fill="#F8F2E8" stroke="#111111" stroke-width="18"/>
  <path d="M604 324V414" stroke="#111111" stroke-width="14"/>
  <path d="M640 324V414" stroke="#111111" stroke-width="14"/>
  <path d="M676 324V414" stroke="#111111" stroke-width="14"/>
  <path d="M507 204C482 232 471 265 471 302" stroke="#111111" stroke-width="18" stroke-linecap="round"/>
  <path d="M773 204C798 232 809 265 809 302" stroke="#111111" stroke-width="18" stroke-linecap="round"/>
  <path d="M531 360C503 392 487 429 482 472" stroke="#111111" stroke-width="18" stroke-linecap="round"/>
  <path d="M749 360C777 392 793 429 798 472" stroke="#111111" stroke-width="18" stroke-linecap="round"/>
  <circle cx="402" cy="196" r="18" fill="#D65345"/>
  <circle cx="878" cy="384" r="14" fill="#D65345"/>
  <text x="640" y="518" text-anchor="middle" fill="#F8F2E8" font-family="Segoe UI, sans-serif" font-size="92" font-weight="800">FaceTrail</text>
  <text x="640" y="564" text-anchor="middle" fill="#D7D1C8" font-family="Segoe UI, sans-serif" font-size="28" font-weight="500">Face extraction, clustering and privacy-safe exports</text>
  <defs>
    <linearGradient id="bg" x1="104" y1="74" x2="1176" y2="568" gradientUnits="userSpaceOnUse">
      <stop stop-color="#18333A"/>
      <stop offset="1" stop-color="#0E1B20"/>
    </linearGradient>
  </defs>
</svg>
